<?xml version="1.0" encoding="utf-8"?>
<!-- Generator: Adobe Illustrator 23.0.3, SVG Export Plug-In . SVG Version: 6.00 Build 0)  -->
<svg version="1.1" id="Capa_1" xmlns="http://www.w3.org/2000/svg" xmlns:xlink="http://www.w3.org/1999/xlink" x="0px" y="0px"
	 viewBox="0 0 1200 1200" enable-background="new 0 0 1200 1200" xml:space="preserve">
<g>
	<path fill="#FF6C11" d="M744.273,396.49c1.393,22.104,3.59,44.209,4.18,66.367c1.179,45.414,5.841,90.078,12.861,134.957
		c7.315,46.62,8.601,93.294,10.503,140.369c1.902,46.807,5.117,93.535,6.109,140.396c0.563,26.23,0.375,52.434,2.01,78.638
		c1.634,26.472,3.805,52.89,4.019,79.415c-36.063,14.843-71.511,31.401-106.851,47.879c-15.326,7.154-30.651,14.334-45.629,22.211
		c-18.728,9.833-40.645,24.248-62.508,26.713c-1.206-18.139-2.84-36.224-5.117-54.256c22.452-7.931,37.055-32.875,52.166-49.541
		c9.94-10.958,18.916-22.586,26.766-35.152c4.046-6.511,10.315-14.307,10.315-22.158c0-16.129-4.796-33.518-7.047-49.46
		c-3.965-28.293-7.824-56.507-9.726-85.014c-2.679-40.565-2.894-81.263-6.216-121.775c-1.554-18.728-4.742-37.001-8.172-55.435
		c-1.286-6.805-1.929-13.021-4.019-19.104c-0.697-2.09-1.581-4.18-2.733-6.27c-9.806-17.817-22.613-36.572-28.963-56.024
		c-0.027-0.08-0.054-0.134-0.054-0.214c-3.885-12.003-4.474-25.641-5.626-38.153c-1.634-17.925-2.492-35.903-3.108-53.881
		c-1.045-29.606-2.786-59.99-0.911-89.623c25.427-4.582,50.532-10.958,75.503-17.63c28.695-7.69,56.882-18.648,86.89-19.345
		C744.327,369.885,743.657,387.113,744.273,396.49z M569.93,384.996c27.758-4.85,55.14-11.842,82.362-19.184
		c18.059-4.876,35.796-10.798,53.961-14.683c-10.905-2.036-21.836-3.778-32.741-5.707c-0.241,0.911-0.67,1.661-1.259,2.278
		c0,0-0.027,0-0.027,0.027c-6.538,12.191-26.284,13.182-37.698,7.529c-6.725-3.349-8.949-8.842-9.592-15.888
		c-7.368-0.831-14.79-1.608-22.131-2.894c-45.2,14.281-92.168,23.444-137.663,37.082c17.174-0.053,34.349,0.75,51.443,2.867
		C534.483,378.619,552.059,382.746,569.93,384.996z M417.692,1002.764c-1.206-4.93,2.304-10.047,6.779-16.103
		c14.843-19.988,35.903-34.215,50.987-54.042c8.842-11.628,22.479-28.508,22.158-43.968c-0.429-20.55-2.84-41.181-3.724-61.731
		c-1.179-27.061-1.018-54.176-2.358-81.263c-0.965-19.398-2.17-38.769-3.483-58.141c-0.804-11.574,0-25.802-1.688-38.287
		c40.136-0.375,80.326-2.492,120.381,1.447c15.888,71.698,11.066,145.433,18.782,218.069c2.385,22.399,5.787,44.691,8.922,66.983
		c1.366,9.726,2.76,19.452,4.153,29.151c0.348,2.411,0.295,5.573,1.045,7.958c-2.063,2.224-3.564,6.752-5.064,9.297
		c-3.724,6.35-7.716,12.539-12.003,18.514c-9.511,13.289-21.059,25.051-31.482,37.617c-8.118,9.78-16.826,21.14-28.508,26.847
		c-2.626,1.313-5.332,2.09-8.065,2.438c-12.539,1.715-25.694-5.252-36.733-10.664c-21.756-10.61-43.164-21.274-65.188-31.294
		c-9.887-4.475-20.282-9.029-29.124-15.46C420.077,1007.641,418.282,1005.229,417.692,1002.764z M614.059,970.077
		c-14.066-7.636-29.285-11.95-44.209-17.523c-16.21-6.082-31-15.058-48.094-18.568c-8.413-1.742-12.03,11.173-3.563,12.914
		c15.594,3.215,29.178,11.146,43.833,16.933c15.138,5.975,30.892,9.994,45.28,17.818
		C614.862,985.777,621.641,974.203,614.059,970.077z M509.512,901.299c0.054,2.813,0.643,5.68,2.197,8.065
		c1.527,2.358,3.805,4.019,6.457,4.876c1.367,0.429,3.456,0.455,4.448,0.911c3.296,1.5,7.207,0.938,9.163-2.385
		c1.688-2.894,0.911-7.663-2.411-9.163c-1.661-0.777-3.242-1.366-5.064-1.715c-0.402-0.08-0.831-0.188-1.233-0.241
		c0-1.233-0.054-3.349-0.027-3.51c0.107-2.331,0-4.528-0.509-6.832c-1.849-8.44-14.763-4.876-12.914,3.563
		C510.075,896.905,509.458,899.182,509.512,901.299z M525.24,818.669c0.188-8.627-13.209-8.627-13.397,0
		c-0.107,5.841-1.554,12.405,1.474,17.791c3.215,5.707,10.61,7.797,16.558,9.217c8.386,1.983,11.977-10.932,3.564-12.914
		c-2.143-0.509-4.367-1.018-6.404-1.876c-0.696-0.295-1.366-0.67-1.983-1.072c-0.027-0.027-0.053-0.027-0.08-0.027
		c0-0.054,0-0.08,0-0.161C524.543,825.984,525.186,822.313,525.24,818.669z M510.691,858.001c0.054,0.161,0.188,0.697,0.241,0.884
		c0.027,0.027,0.027,0.027,0,0.054c0.027,0.188,0.027,0.375,0.027,0.563c0.027,1.286,0,2.572-0.027,3.885
		c-0.08,2.947-0.08,5.868,0.455,8.788c1.179,6.698,6.671,11.173,13.557,10.583c8.52-0.697,8.601-14.12,0-13.397
		c-0.134,0.027-0.241,0.027-0.375,0.027c-0.161-1.045-0.295-1.474-0.295-3.376c0-3.778,0.589-7.904-0.67-11.575
		C520.819,846.346,507.878,849.829,510.691,858.001z M546.594,842.086c3.376,5.841,10.101,7.234,15.701,9.994
		c7.716,3.831,14.495-7.716,6.779-11.548c-2.626-1.313-9.324-2.572-10.905-5.198c-0.831-1.42,0-4.823,0.161-6.35
		c0.322-2.867,0.777-5.653,0.589-8.547c-0.536-8.574-13.932-8.627-13.396,0C545.977,827.645,542.709,835.307,546.594,842.086z
		 M544.343,859.046c-0.991,6.136-3.215,12.834-1.152,18.996c2.358,7.047,8.842,6.993,15.058,6.859
		c8.601-0.214,8.627-13.611,0-13.396c-0.723,0.027-1.527,0-2.331,0.027c0.455-2.947,0.884-5.948,1.34-8.922
		c0.563-3.564-0.911-7.207-4.689-8.226C549.38,853.5,544.906,855.456,544.343,859.046z M591.392,914.213
		c0.134-2.572,0.429-5.118,0.482-7.663c0.161-8.627-13.236-8.627-13.397,0c-0.134,6.404-1.661,13.209,0.831,19.371
		c1.313,3.242,3.644,5.653,6.913,6.966c1.688,0.67,6.323,0.616,7.314,1.768c5.653,6.538,15.111-2.974,9.485-9.458
		c-1.876-2.143-4.448-3.349-7.181-3.885c-1.045-0.214-2.17-0.348-3.215-0.482c-0.67-0.08-0.991-0.214-1.125-0.241
		C590.695,919.304,591.311,915.526,591.392,914.213z M606.074,880.695c-2.626,0.134-8.842,1.045-10.637-0.214
		c-0.643-0.455-1.366-3.938-1.661-5.251c-0.59-2.653-0.965-5.332-1.206-8.011c-0.777-8.52-14.173-8.6-13.396,0
		c0.67,7.234,1.259,17.308,6.779,22.721c5.144,5.064,13.504,4.448,20.121,4.153C614.675,893.743,614.702,880.347,606.074,880.695z
		 M603.583,843.506c-3.215,0.027-10.047-0.509-12.218-3.242c-0.857-1.045-0.804-4.662-0.884-6.136
		c-0.188-3.43-0.348-6.779-0.992-10.155c-1.554-8.467-14.468-4.876-12.914,3.563c1.5,8.011-0.616,17.469,6.618,23.256
		c5.385,4.341,13.584,6.136,20.39,6.109C612.21,856.849,612.237,843.453,603.583,843.506z M503.886,700.378
		c0.857,8.413,2.143,16.746,2.599,24.248c1.152,19.398,0.188,39.011,3.939,58.221c0.027,0.134,0.053,0.268,0.107,0.402
		c-0.804,3.188,0.429,6.832,4.555,7.797c8.226,1.983,16.933,2.706,25.561,3.403c4.153,0.348,8.279,0.67,12.325,1.152
		c4.153,0.482,8.359,1.018,12.566,1.527c9.994,1.206,20.068,2.358,30.008,2.679c4.287,0.134,6.43-3.108,6.457-6.43
		c0-0.027,0-0.027,0-0.053c0.107-0.643,0.107-1.313,0-2.01c-2.411-16.96-2.465-34.349-2.572-51.47
		c-0.08-10.744-0.616-21.488-1.152-32.232c-0.455-9.538-0.911-19.05-1.018-28.615c-0.027-2.947-1.608-4.876-3.698-5.841
		c0,0-0.027,0.027-0.027,0c-0.723-0.911-1.822-1.634-3.295-2.036c-9.914-2.626-20.041-2.492-30.142-2.947
		c-3.644-0.161-7.288-0.375-10.932-0.831c-11.709-1.5-23.337-2.652-35.099-2.224c-2.706-0.831-5.948-0.188-7.69,2.492
		c-0.027,0.027-0.054,0.054-0.054,0.08c-0.991,1.206-1.5,2.76-1.554,4.287C502.519,680.738,502.894,690.625,503.886,700.378z
		 M476.396,999.201c7.957,12.378,27.758,17.255,40.913,20.095c1.634,0.348,3.108,0.161,4.314-0.429c0.027,0,0.053-0.027,0.08-0.027
		c0.723-0.268,1.447-0.697,2.117-1.259c4.608-3.858,11.869-6.698,14.468-12.486c2.519-5.573,0.616-12.003-3.617-16.183
		c-9.619-9.458-29.821-12.887-42.842-11.387C481.245,978.758,468.92,987.519,476.396,999.201z M601.814,636.798
		c-5.037-10.476-12.405-20.899-17.415-30.517c-3.564-6.886-6.457-13.289-8.761-19.8c-25.453-3.108-51.094-4.18-76.735-2.867
		c-19.934,1.045-39.493,3.001-59.186,1.259c5.707,8.226,14.12,16.21,19.532,22.855c7.047,8.654,18.889,17.389,23.765,28.133
		C522.614,635.592,562.294,633.422,601.814,636.798z M433.554,570.726c-2.572-13.102-1.099-28.695-1.554-41.797
		c-0.616-17.308-1.072-34.644-1.42-51.952c-0.589-29.58-0.938-59.159-0.965-88.739c28.99-1.876,58.087-2.036,86.97,1.581
		c15.62,1.929,30.973,5.305,46.54,7.636c-1.474,24.435-0.161,49.326,0.429,73.734c0.723,28.91,1.768,57.953,5.412,86.649
		c0.67,5.252,1.527,10.128,2.599,14.763c-22.426-2.572-44.986-3.537-67.572-2.626C480.415,570.94,456.998,574.343,433.554,570.726z
		 M464.071,554.007c20.015,3.697,42.735-0.348,63.071-0.188c11.628,0.107,23.364,1.849,26.23-12.111
		c1.849-8.976,0.348-20.068,0.188-29.365c-0.268-17.951-1.902-35.903-3.537-53.801c-0.402-11.066,3.778-26.9-4.608-35.983
		c-8.252-8.922-25.105-8.118-36.144-8.815c-10.958-0.696-21.756-0.75-32.741-0.134c-7.207,0.375-15.861-0.161-21.917,4.608
		c-12.7,9.994-8.467,36.439-8.895,50.237c-0.643,21.568-1.233,43.539,0.67,65.054C447.379,544.79,452.63,551.89,464.071,554.007z
		 M479.798,1052.305c-20.041-10.021-41.851-16.772-60.74-29.044c0.107,6.993-0.161,13.986-0.053,20.899
		c0.107,7.636-0.027,16.103,3.108,23.23c3.912,8.922,13.664,13.504,21.676,18.353c19.237,11.655,39.707,21.086,60.284,30.062
		c16.826,7.314,34.241,11.762,51.496,17.389c-1.152-17.255-2.706-34.456-4.796-51.603
		C526.365,1082.099,499.706,1062.245,479.798,1052.305z M491.561,540.852c9.565-0.402,19.05-0.214,28.588-0.295
		c3.215,0,17.174,1.849,19.345,0.027c2.76-2.304,0.723-12.834,0.67-16.451c0-0.107,0-0.241,0-0.348
		c-6.43,4.019-15.379,4.957-22.292,5.814c-13.048,1.607-32.205,2.974-42.145-7.716c-8.654-9.351-8.976-28.347-9.753-40.377
		c-0.295-4.608-0.616-9.806-0.375-15.004c0.429-9.136,2.626-18.219,9.646-23.873c9.404-7.609,22.988-7.073,34.402-6.511
		c10.932,0.536,19.613,2.867,27.356,8.788c0.08-2.009,0.08-3.992-0.054-6.002c-0.697-10.556-10.128-10.449-18.889-11.199
		c-7.047-0.616-14.2-1.098-21.247-1.233c-5.091-0.107-10.155,0.027-15.218,0.268c-3.644,0.161-10.958-0.938-13.852,0.804
		c-10.449,6.216-7.984,22.854-8.359,33.116c-0.08,1.876-0.134,3.751-0.187,5.627c-0.268,8.547-0.456,17.094-0.509,25.641
		c-0.027,10.423,0.268,20.845,0.643,31.268c0.214,6.002-1.259,13.423,4.421,17.094C469.671,544.094,484.943,541.12,491.561,540.852z
		"/>
	<path fill="#FFE969" d="M628.42,67.204c8.225-2.706,20.604-6.752,26.338-2.224c4.421,3.51,2.545,13.691,2.519,18.675
		c-0.027,3.376,1.045,11.628-2.144,13.879c-0.295,0.214-0.696,0.375-1.152,0.509c-0.027,0.027-0.053,0.027-0.107,0.027
		c-0.268,0.08-0.563,0.134-0.857,0.188h-0.027c-3.215,0.509-8.226-0.161-10.423-0.188c-3.885-0.053-11.387,0.509-13.879-2.974
		c-2.384-3.376-1.018-11.869-0.911-15.728C627.911,75.322,628.205,71.276,628.42,67.204z M638.065,312.119
		c0.429,6.457-2.974,23.256,0.509,28.883c2.679,4.367,18.594,6.564,21.649,1.045c-6.162-76.789-7.85-153.658-11.253-230.608
		c-1.206,0.027-2.411,0.027-3.59,0.027c-2.84,0.027-5.921,0.054-9.003-0.187c-0.08,42.842-0.67,85.684-0.696,128.553
		C635.654,264.025,636.458,287.978,638.065,312.119z M571.243,772.183c0.241,4.046,0.563,8.092,0.965,12.137
		c5.251,0.616,10.53,1.233,15.808,1.635c-0.482-4.314-0.804-8.627-1.045-12.968C581.693,773.094,576.441,772.772,571.243,772.183z
		 M586.06,743.622c0-0.027,0-0.027,0-0.053c-5.225-0.295-10.556-0.536-15.942-0.804c0.107,5.332,0.241,10.637,0.455,15.942
		c5.225,0.616,10.476,0.965,15.781,0.911C586.194,754.285,586.114,748.953,586.06,743.622z M585.069,713.854
		c-5.6-1.152-11.253-1.393-16.906-1.581c0.509,5.76,1.098,11.494,1.447,17.094c5.466,0.241,10.851,0.482,16.13,0.777
		C585.551,724.706,585.31,719.294,585.069,713.854z M583.943,683.418c-5.519-1.179-11.119-1.474-16.773-1.661
		c-0.456,5.626-0.375,11.387-0.054,17.201c5.814,0.214,11.601,0.375,17.362,1.206C584.238,694.59,584.05,688.991,583.943,683.418z
		 M546.888,768.486c0.455,4.474,0.831,8.949,0.991,13.397c3.322,0.268,6.591,0.509,9.726,0.804c0.375,0.027,0.723,0.08,1.098,0.107
		c-0.402-4.18-0.697-8.333-0.911-12.486C554.149,769.745,550.532,769.102,546.888,768.486z M556.721,742.014
		c-4.314-0.295-8.654-0.616-12.941-1.072c0.402,4.635,0.938,9.27,1.5,13.879c3.965,0.67,7.931,1.366,11.923,2.009
		C557.016,751.901,556.882,746.971,556.721,742.014z M541.583,710.13c0.455,5.787,0.911,11.575,1.313,17.282
		c4.421,0.509,8.868,0.884,13.316,1.179c-0.295-5.6-0.777-11.28-1.232-16.987c-0.402-0.054-0.831-0.08-1.233-0.134
		C549.675,711.014,545.629,710.559,541.583,710.13z M540.672,696.493c4.126,0.455,8.279,0.938,12.405,1.474
		c0.321,0.054,0.67,0.08,0.991,0.107c-0.295-5.653-0.375-11.28-0.054-16.826c-1.393-0.107-2.786-0.241-4.18-0.402
		c-3.242-0.402-6.457-0.804-9.699-1.125C540.137,685.266,540.351,690.866,540.672,696.493z M521.435,765.244
		c0.375,4.635,0.965,9.27,1.876,13.852c3.59,0.67,7.341,1.179,11.119,1.581c-0.214-4.769-0.643-9.538-1.179-14.307
		C529.312,765.86,525.4,765.431,521.435,765.244z M524.114,463.848c-0.295,3.537,1.849,7.314,6.43,7.314
		c1.474,0,2.679-0.375,3.644-1.045c0.268,2.251,0.563,4.501,0.831,6.752c-0.509-0.187-1.072-0.295-1.635-0.322
		c-0.161-0.027-0.321-0.027-0.482-0.027c-0.08,0-0.134,0-0.214,0c-0.107,0-0.241,0-0.348,0c-3.51,0-6.859,3.081-6.698,6.698
		c0.161,3.51,2.706,6.457,6.269,6.672c0.027,0.027,0.054,0.027,0.08,0c0.107,0,0.241,0,0.348,0.027c0.188,0,0.375,0,0.563,0
		c0.134,0,0.295,0,0.429-0.027c0.991-0.054,1.956-0.375,2.813-0.857c0.107,1.822,0.161,3.671,0.188,5.466
		c-0.884-0.482-1.956-0.777-3.215-0.777c-8.601,0-8.627,13.397,0,13.397c0.938,0,1.795-0.161,2.519-0.429
		c-2.572,12.271-23.283,10.744-33.17,10.449c-12.325-0.375-17.228-5.68-19.8-14.308c-0.884-2.894-1.474-6.162-2.009-9.726
		c-1.554-10.021-5.091-29.74,1.715-38.26c5.466-6.832,16.237-5.707,24.194-5.466c10.422,0.348,17.79,1.929,24.837,8.413
		c-0.268,0-0.563-0.027-0.857-0.027C526.499,457.766,524.355,460.714,524.114,463.848z M491.936,470.091
		c8.627,0,8.627-13.397,0-13.397S483.309,470.091,491.936,470.091z M485.238,481.826c0.161,3.617,2.947,6.698,6.698,6.698
		c0.241,0,0.482,0,0.697,0c3.51,0,6.886-3.081,6.698-6.698c-0.161-3.644-2.921-6.698-6.698-6.698c-0.214,0-0.455,0-0.697,0
		C488.426,475.128,485.077,478.209,485.238,481.826z M500.51,500.314c0.295-3.537-1.876-7.314-6.457-7.314
		c-5.117,0-7.181,4.716-6.243,8.547c0.67,2.626,2.733,4.85,6.243,4.85C498.098,506.396,500.268,503.448,500.51,500.314z
		 M517.952,479.656v-0.027c-0.509-1.366-1.474-2.545-2.787-3.242c-1.098-0.563-2.251-0.857-3.403-0.857
		c-2.277,0-4.475,1.125-5.761,3.269c-2.304,3.805-0.482,9.86,4.34,10.53c0.697,0.107,1.34,0.161,1.956,0.161
		c1.099,0,2.144-0.214,3.215-0.831c1.393-0.804,2.706-2.411,3.081-3.992C518.943,483.112,518.729,481.237,517.952,479.656z
		 M519.667,498.626c-0.884-2.706-3.831-5.305-6.859-5.01c-0.482,0.027-0.938,0.161-1.393,0.348
		c-0.295,0.107-0.402,0.161-0.348,0.188c-1.393,0.214-2.599,0.723-3.671,1.795c-1.099,1.099-1.956,2.894-1.956,4.528
		c0,0.08,0,0.134,0,0.214c0.134,3.322,2.947,7.047,6.698,6.698c0.965-0.107,1.929-0.134,2.84-0.509
		c1.688-0.697,3.054-1.447,3.992-3.081C519.827,502.35,520.176,500.233,519.667,498.626z M518.514,463.661
		c0-0.589-0.107-1.152-0.268-1.688c-0.67-2.063-1.983-3.483-3.671-4.207c-1.527-1.018-3.403-1.447-5.278-0.831
		c-3.295,1.072-5.894,4.689-4.689,8.225c1.152,3.43,3.805,5.225,7.073,5.225c0.616,0,1.233-0.08,1.876-0.188
		C516.452,469.662,518.514,466.528,518.514,463.661z M530.25,739.147c-3.349-0.509-6.645-1.152-9.914-1.902
		c0.134,4.85,0.188,9.726,0.348,14.575c3.671,0.161,7.288,0.482,10.932,0.938C531.08,748.203,530.598,743.675,530.25,739.147z
		 M519.801,723.312c3.135,0.831,6.323,1.527,9.565,2.117c-0.402-5.573-0.857-11.173-1.286-16.773
		c-3.349-0.375-6.698-0.723-10.074-1.045C518.702,713.104,519.426,718.436,519.801,723.312z M516.585,694.054
		c3.537,0.322,7.073,0.67,10.61,1.018c-0.295-5.519-0.482-11.012-0.429-16.451c-3.215-0.161-6.457-0.241-9.672-0.188
		C516.264,683.337,516.237,688.642,516.585,694.054z M496.651,998.29c6.725,3.644,13.718,5.68,21.086,7.395
		c2.25-1.447,4.662-2.947,6.028-4.608c1.876-2.224,3.054-0.027,0.831-3.108c-0.938-1.286-4.635-2.144-6.109-2.733
		c-6.805-2.626-14.066-4.689-21.408-4.635c-2.17,0-8.279-0.054-8.413,2.09C488.533,994.539,495.204,997.486,496.651,998.29z"/>
	<path fill="#261447" d="M569.85,952.554c14.924,5.573,30.142,9.887,44.209,17.523c7.582,4.126,0.804,15.701-6.752,11.575
		c-14.388-7.824-30.142-11.843-45.28-17.818c-14.656-5.787-28.24-13.718-43.833-16.933c-8.467-1.742-4.85-14.656,3.563-12.914
		C538.851,937.496,553.64,946.472,569.85,952.554z M595.437,880.481c-0.643-0.455-1.366-3.938-1.661-5.251
		c-0.59-2.653-0.965-5.332-1.206-8.011c-0.777-8.52-14.173-8.6-13.396,0c0.67,7.234,1.259,17.308,6.779,22.721
		c5.144,5.064,13.504,4.448,20.121,4.153c8.601-0.348,8.628-13.745,0-13.396C603.449,880.829,597.233,881.74,595.437,880.481z
		 M590.481,834.129c-0.188-3.43-0.348-6.779-0.992-10.155c-1.554-8.467-14.468-4.876-12.914,3.563
		c1.5,8.011-0.616,17.469,6.618,23.256c5.385,4.341,13.584,6.136,20.39,6.109c8.627-0.054,8.654-13.45,0-13.397
		c-3.215,0.027-10.047-0.509-12.218-3.242C590.507,839.219,590.561,835.602,590.481,834.129z M591.874,906.55
		c0.161-8.627-13.236-8.627-13.397,0c-0.134,6.404-1.661,13.209,0.831,19.371c1.313,3.242,3.644,5.653,6.913,6.966
		c1.688,0.67,6.323,0.616,7.314,1.768c5.653,6.538,15.111-2.974,9.485-9.458c-1.876-2.143-4.448-3.349-7.181-3.885
		c-1.045-0.214-2.17-0.348-3.215-0.482c-0.67-0.08-0.991-0.214-1.125-0.241c-0.804-1.286-0.187-5.064-0.107-6.377
		C591.526,911.641,591.82,909.096,591.874,906.55z M546.594,842.086c3.376,5.841,10.101,7.234,15.701,9.994
		c7.716,3.831,14.495-7.716,6.779-11.548c-2.626-1.313-9.324-2.572-10.905-5.198c-0.831-1.42,0-4.823,0.161-6.35
		c0.322-2.867,0.777-5.653,0.589-8.547c-0.536-8.574-13.932-8.627-13.396,0C545.977,827.645,542.709,835.307,546.594,842.086z
		 M402.956,1003.166c-0.831-2.679-0.027-4.85,1.527-6.27c0.804-4.153,2.787-8.601,5.948-13.423
		c12.325-18.916,30.812-32.339,45.977-48.71c10.583-11.414,22.881-27.463,27.624-42.708c0.107-0.348,0.188-0.616,0.268-0.777
		c-0.027-0.241-0.027-0.67,0-1.42c0.107-2.679-0.375-5.546-0.563-8.225c-3.831-55.783-3.965-111.647-7.368-167.457
		c-1.072-17.362-2.251-34.697-3.51-52.032c-0.375-5.385,0.054-12.057-1.313-17.603c-0.322-1.42-0.804-2.786-1.42-4.019
		c-3.028-6.082-9.994-11.36-14.468-16.424c-9.86-11.173-19.318-23.149-28.213-35.126c-1.822-2.465-3.162-4.796-4.153-7.1
		c-2.117-1.474-2.626-4.099-1.983-6.511c-0.857-4.26-0.991-8.788-1.313-14.281c-3.242-59.588-3.778-119.39-3.805-179.058
		c0-2.117,0.804-3.724,2.036-4.796c0.697-1.313,1.876-2.438,3.59-3.081c57.203-22.131,118.479-32.018,176.834-50.398
		c0.509-0.295,1.098-0.482,1.741-0.616c0.295-0.08,0.59-0.134,0.884-0.187c1.822-0.375,3.43-0.107,4.716,0.563
		c6.082,1.045,12.271,1.715,18.407,2.411c-0.241-9.94-0.295-19.907-0.964-29.901c-4.207-62.428-0.59-125.713-0.482-188.248
		c-0.321-0.214-0.67-0.429-0.991-0.643c-12.807-8.788-6.966-31.964-6.779-44.905c0.027-1.233,0.295-2.278,0.804-3.162
		c0.107-0.214,0.214-0.402,0.348-0.589c0.054-0.08,0.08-0.134,0.134-0.188c0.723-1.152,1.929-2.063,3.617-2.519
		c13.236-3.671,34.885-11.601,45.629,1.447c6.377,7.77,5.01,18.3,4.93,27.65c-0.054,7.207,0.027,15.969-5.305,21.542
		c-0.965,0.991-1.983,1.795-3.081,2.438c3.322,74.404,4.983,148.702,10.556,222.945c23.256,4.126,46.861,7.395,69.635,13.906
		c0.027,0,0.027,0,0.027,0c0.134,0.027,0.241,0.08,0.375,0.107c0.402,0.107,0.777,0.241,1.125,0.402
		c0.482,0.241,0.938,0.536,1.393,0.911c0.161,0.134,0.295,0.268,0.429,0.402c0.054,0.054,0.107,0.107,0.161,0.161
		c9.458,9.485,9.914,27.061,11.039,39.547c2.063,23.444,3.858,47.129,4.689,70.627c1.768,49.54,6.645,97.714,14.2,146.719
		c7.207,46.834,7.529,94.151,9.646,141.387c2.197,48.576,5.385,97.071,6.028,145.701c0.67,48.924,5.546,97.688,5.814,146.585
		c0,1.018-0.161,1.902-0.482,2.679c-0.054,2.679-1.393,5.385-4.448,6.618c-39.493,16.076-78.263,34.268-116.845,52.434
		c-16.424,7.716-32.5,15.862-48.603,24.221c-17.496,9.083-37.403,20.47-57.632,22.64c0,0.027,0,0.027,0,0.027
		c-1.286,2.411-3.858,3.939-7.234,2.706c-22.345-8.118-45.039-13.557-66.902-23.122c-22.613-9.887-45.173-20.416-65.884-33.947
		c-14.763-9.646-21.542-19.023-23.23-36.841C404.456,1038.319,408.181,1020.019,402.956,1003.166z M555.569,1133.193
		c-1.152-17.255-2.706-34.456-4.796-51.603c-24.409,0.509-51.068-19.345-70.975-29.285c-20.041-10.021-41.851-16.772-60.74-29.044
		c0.107,6.993-0.161,13.986-0.053,20.899c0.107,7.636-0.027,16.103,3.108,23.23c3.912,8.922,13.664,13.504,21.676,18.353
		c19.237,11.655,39.707,21.086,60.284,30.062C520.899,1123.119,538.315,1127.566,555.569,1133.193z M748.453,462.857
		c-0.589-22.158-2.786-44.262-4.18-66.367c-0.616-9.378,0.054-26.605-5.359-36.09c-30.008,0.697-58.195,11.655-86.89,19.345
		c-24.971,6.672-50.076,13.048-75.503,17.63c-1.876,29.633-0.134,60.017,0.911,89.623c0.616,17.978,1.474,35.956,3.108,53.881
		c1.152,12.512,1.741,26.15,5.626,38.153c0,0.08,0.027,0.134,0.054,0.214c6.35,19.452,19.157,38.207,28.963,56.024
		c1.152,2.09,2.036,4.18,2.733,6.27c2.09,6.082,2.733,12.298,4.019,19.104c3.429,18.434,6.618,36.707,8.172,55.435
		c3.322,40.511,3.537,81.21,6.216,121.775c1.902,28.508,5.76,56.721,9.726,85.014c2.251,15.942,7.047,33.331,7.047,49.46
		c0,7.85-6.27,15.647-10.315,22.158c-7.85,12.566-16.826,24.194-26.766,35.152c-15.111,16.665-29.714,41.61-52.166,49.541
		c2.277,18.032,3.912,36.117,5.117,54.256c21.863-2.465,43.78-16.88,62.508-26.713c14.977-7.877,30.303-15.058,45.629-22.211
		c35.34-16.478,70.787-33.036,106.851-47.879c-0.214-26.525-2.385-52.943-4.019-79.415c-1.634-26.204-1.447-52.407-2.01-78.638
		c-0.991-46.861-4.206-93.588-6.109-140.396c-1.902-47.076-3.188-93.749-10.503-140.369
		C754.294,552.935,749.632,508.271,748.453,462.857z M503.993,569.976c22.587-0.911,45.146,0.054,67.572,2.626
		c-1.072-4.635-1.929-9.511-2.599-14.763c-3.644-28.695-4.689-57.739-5.412-86.649c-0.589-24.408-1.902-49.299-0.429-73.734
		c-15.567-2.331-30.919-5.707-46.54-7.636c-28.883-3.617-57.98-3.456-86.97-1.581c0.027,29.579,0.375,59.159,0.965,88.739
		c0.348,17.308,0.804,34.643,1.42,51.952c0.455,13.102-1.018,28.695,1.554,41.797C456.998,574.343,480.415,570.94,503.993,569.976z
		 M628.42,67.204c-0.214,4.072-0.509,8.118-0.643,12.164c-0.107,3.858-1.474,12.352,0.911,15.728
		c2.492,3.483,9.994,2.921,13.879,2.974c2.197,0.027,7.207,0.697,10.423,0.188h0.027c0.295-0.053,0.59-0.107,0.857-0.188
		c0.054,0,0.08,0,0.107-0.027c0.456-0.134,0.857-0.295,1.152-0.509c3.188-2.251,2.117-10.503,2.144-13.879
		c0.027-4.984,1.902-15.165-2.519-18.675C649.024,60.452,636.645,64.497,628.42,67.204z M636.377,111.278
		c-0.08,42.842-0.67,85.684-0.696,128.553c-0.027,24.194,0.777,48.147,2.384,72.288c0.429,6.457-2.974,23.256,0.509,28.883
		c2.679,4.367,18.594,6.564,21.649,1.045c-6.162-76.789-7.85-153.658-11.253-230.608c-1.206,0.027-2.411,0.027-3.59,0.027
		C642.54,111.492,639.458,111.519,636.377,111.278z M465.143,373.556c17.174-0.053,34.349,0.75,51.443,2.867
		c17.898,2.197,35.474,6.323,53.345,8.574c27.758-4.85,55.14-11.842,82.362-19.184c18.059-4.876,35.796-10.798,53.961-14.683
		c-10.905-2.036-21.836-3.778-32.741-5.707c-0.241,0.911-0.67,1.661-1.259,2.278c0,0-0.027,0-0.027,0.027
		c-6.538,12.191-26.284,13.182-37.698,7.529c-6.725-3.349-8.949-8.842-9.592-15.888c-7.368-0.831-14.79-1.608-22.131-2.894
		C557.606,350.755,510.637,359.918,465.143,373.556z M483.014,635.86c39.6-0.268,79.281-2.438,118.801,0.938
		c-5.037-10.476-12.405-20.899-17.415-30.517c-3.564-6.886-6.457-13.289-8.761-19.8c-25.453-3.108-51.094-4.18-76.735-2.867
		c-19.934,1.045-39.493,3.001-59.186,1.259c5.707,8.226,14.12,16.21,19.532,22.855C466.295,616.381,478.137,625.116,483.014,635.86z
		 M417.692,1002.764c0.59,2.465,2.385,4.876,5.787,7.368c8.842,6.43,19.237,10.985,29.124,15.46
		c22.024,10.021,43.432,20.684,65.188,31.294c11.039,5.412,24.194,12.378,36.733,10.664c2.733-0.348,5.439-1.125,8.065-2.438
		c11.682-5.707,20.39-17.067,28.508-26.847c10.423-12.566,21.97-24.328,31.482-37.617c4.287-5.975,8.279-12.164,12.003-18.514
		c1.5-2.545,3.001-7.073,5.064-9.297c-0.75-2.385-0.697-5.546-1.045-7.958c-1.393-9.699-2.786-19.425-4.153-29.151
		c-3.135-22.292-6.538-44.584-8.922-66.983c-7.716-72.636-2.894-146.371-18.782-218.069c-40.056-3.939-80.245-1.822-120.381-1.447
		c1.688,12.486,0.884,26.713,1.688,38.287c1.313,19.372,2.519,38.743,3.483,58.141c1.34,27.088,1.179,54.203,2.358,81.263
		c0.884,20.55,3.296,41.181,3.724,61.731c0.322,15.46-13.316,32.339-22.158,43.968c-15.085,19.827-36.144,34.054-50.987,54.042
		C419.996,992.717,416.487,997.834,417.692,1002.764z M544.343,859.046c0.563-3.59,5.037-5.546,8.226-4.662
		c3.778,1.018,5.252,4.662,4.689,8.226c-0.455,2.974-0.884,5.975-1.34,8.922c0.804-0.027,1.608,0,2.331-0.027
		c8.627-0.214,8.601,13.182,0,13.396c-6.216,0.134-12.7,0.188-15.058-6.859C541.128,871.88,543.352,865.182,544.343,859.046z
		 M555.703,873.139C555.703,873.836,555.998,873.461,555.703,873.139L555.703,873.139z M464.071,554.007
		c-11.441-2.117-16.692-9.217-17.683-20.497c-1.902-21.515-1.313-43.485-0.67-65.054c0.429-13.798-3.805-40.243,8.895-50.237
		c6.055-4.769,14.709-4.233,21.917-4.608c10.985-0.616,21.783-0.563,32.741,0.134c11.039,0.697,27.892-0.107,36.144,8.815
		c8.386,9.083,4.206,24.918,4.608,35.983c1.634,17.898,3.269,35.849,3.537,53.801c0.161,9.297,1.661,20.389-0.188,29.365
		c-2.867,13.959-14.602,12.218-26.23,12.111C506.806,553.659,484.085,557.704,464.071,554.007z M524.114,463.848
		c0.241-3.135,2.385-6.082,6.43-6.082c0.295,0,0.59,0.027,0.857,0.027c-7.047-6.484-14.415-8.065-24.837-8.413
		c-7.958-0.241-18.729-1.366-24.194,5.466c-6.805,8.52-3.269,28.24-1.715,38.26c0.536,3.564,1.125,6.832,2.009,9.726
		c2.572,8.627,7.475,13.932,19.8,14.308c9.887,0.295,30.598,1.822,33.17-10.449c-0.724,0.268-1.581,0.429-2.519,0.429
		c-8.627,0-8.601-13.397,0-13.397c1.259,0,2.331,0.295,3.215,0.777c-0.027-1.795-0.081-3.644-0.188-5.466
		c-0.857,0.482-1.822,0.804-2.813,0.857c-0.134,0.027-0.295,0.027-0.429,0.027c-0.188,0-0.375,0-0.563,0
		c-0.107-0.027-0.241-0.027-0.348-0.027c-0.027,0.027-0.054,0.027-0.08,0c-3.563-0.214-6.109-3.162-6.269-6.672
		c-0.161-3.617,3.188-6.698,6.698-6.698c0.107,0,0.241,0,0.348,0c0.08,0,0.134,0,0.214,0c0.161,0,0.322,0,0.482,0.027
		c0.563,0.027,1.125,0.134,1.635,0.322c-0.268-2.251-0.563-4.501-0.831-6.752c-0.965,0.67-2.17,1.045-3.644,1.045
		C525.963,471.163,523.82,467.385,524.114,463.848z M463.749,540.289c5.921,3.805,21.193,0.831,27.811,0.563
		c9.565-0.402,19.05-0.214,28.588-0.295c3.215,0,17.174,1.849,19.345,0.027c2.76-2.304,0.723-12.834,0.67-16.451
		c0-0.107,0-0.241,0-0.348c-6.43,4.019-15.379,4.957-22.292,5.814c-13.048,1.607-32.205,2.974-42.145-7.716
		c-8.654-9.351-8.976-28.347-9.753-40.377c-0.295-4.608-0.616-9.806-0.375-15.004c0.429-9.136,2.626-18.219,9.646-23.873
		c9.404-7.609,22.988-7.073,34.402-6.511c10.932,0.536,19.613,2.867,27.356,8.788c0.08-2.009,0.08-3.992-0.054-6.002
		c-0.697-10.556-10.128-10.449-18.889-11.199c-7.047-0.616-14.2-1.098-21.247-1.233c-5.091-0.107-10.155,0.027-15.218,0.268
		c-3.644,0.161-10.958-0.938-13.852,0.804c-10.449,6.216-7.984,22.854-8.359,33.116c-0.08,1.876-0.134,3.751-0.187,5.627
		c-0.268,8.547-0.456,17.094-0.509,25.641c-0.027,10.423,0.268,20.845,0.643,31.268
		C459.543,529.197,458.069,536.618,463.749,540.289z M476.396,999.201c-7.475-11.682,4.85-20.443,15.433-21.675
		c13.021-1.5,33.223,1.929,42.842,11.387c4.233,4.18,6.136,10.61,3.617,16.183c-2.599,5.787-9.86,8.627-14.468,12.486
		c-0.67,0.563-1.393,0.991-2.117,1.259c-0.027,0-0.053,0.027-0.08,0.027c-1.206,0.589-2.679,0.777-4.314,0.429
		C504.153,1016.455,484.353,1011.579,476.396,999.201z M488.667,992.69c-0.134,1.849,6.537,4.796,7.984,5.6
		c6.725,3.644,13.718,5.68,21.086,7.395c2.25-1.447,4.662-2.947,6.028-4.608c1.876-2.224,3.054-0.027,0.831-3.108
		c-0.938-1.286-4.635-2.144-6.109-2.733c-6.805-2.626-14.066-4.689-21.408-4.635C494.91,990.6,488.801,990.547,488.667,992.69z
		 M511.843,818.669c-0.107,5.841-1.554,12.405,1.474,17.791c3.215,5.707,10.61,7.797,16.558,9.217
		c8.386,1.983,11.977-10.932,3.564-12.914c-2.143-0.509-4.367-1.018-6.404-1.876c-0.696-0.295-1.366-0.67-1.983-1.072
		c-0.027-0.027-0.053-0.027-0.08-0.027c0-0.054,0-0.08,0-0.161c-0.429-3.644,0.214-7.314,0.268-10.958
		C525.427,810.042,512.031,810.042,511.843,818.669z M509.512,901.299c-0.054-2.117,0.563-4.394,0.107-6.43
		c-1.849-8.44,11.066-12.003,12.914-3.563c0.509,2.304,0.616,4.501,0.509,6.832c-0.027,0.161,0.027,2.277,0.027,3.51
		c0.402,0.053,0.831,0.161,1.233,0.241c1.822,0.348,3.403,0.938,5.064,1.715c3.322,1.5,4.099,6.27,2.411,9.163
		c-1.956,3.322-5.868,3.885-9.163,2.385c-0.991-0.455-3.081-0.482-4.448-0.911c-2.652-0.857-4.93-2.519-6.457-4.876
		C510.155,906.979,509.566,904.112,509.512,901.299z M523.096,902.103c0,0.241,0,0.402,0,0.402
		C523.311,902.37,523.257,902.21,523.096,902.103z M510.691,858.001c0.054,0.161,0.188,0.697,0.241,0.884
		c0.027,0.027,0.027,0.027,0,0.054c0.027,0.188,0.027,0.375,0.027,0.563c0.027,1.286,0,2.572-0.027,3.885
		c-0.08,2.947-0.08,5.868,0.455,8.788c1.179,6.698,6.671,11.173,13.557,10.583c8.52-0.697,8.601-14.12,0-13.397
		c-0.134,0.027-0.241,0.027-0.375,0.027c-0.161-1.045-0.295-1.474-0.295-3.376c0-3.778,0.589-7.904-0.67-11.575
		C520.819,846.346,507.878,849.829,510.691,858.001z M503.886,700.378c-0.991-9.753-1.366-19.639,0.884-28.401
		c0.054-1.527,0.563-3.081,1.554-4.287c0-0.027,0.027-0.054,0.054-0.08c1.741-2.679,4.983-3.322,7.69-2.492
		c11.762-0.429,23.39,0.724,35.099,2.224c3.644,0.455,7.288,0.67,10.932,0.831c10.101,0.455,20.229,0.322,30.142,2.947
		c1.474,0.402,2.572,1.125,3.295,2.036c0,0.027,0.027,0,0.027,0c2.09,0.964,3.671,2.894,3.698,5.841
		c0.107,9.565,0.563,19.077,1.018,28.615c0.536,10.744,1.072,21.488,1.152,32.232c0.107,17.121,0.161,34.51,2.572,51.47
		c0.107,0.696,0.107,1.366,0,2.01c0,0.027,0,0.027,0,0.053c-0.027,3.322-2.17,6.564-6.457,6.43
		c-9.94-0.322-20.014-1.474-30.008-2.679c-4.206-0.509-8.413-1.045-12.566-1.527c-4.046-0.482-8.172-0.804-12.325-1.152
		c-8.627-0.697-17.335-1.42-25.561-3.403c-4.126-0.965-5.359-4.608-4.555-7.797c-0.054-0.134-0.08-0.268-0.107-0.402
		c-3.751-19.211-2.787-38.823-3.939-58.221C506.029,717.123,504.743,708.791,503.886,700.378z M567.117,698.958
		c5.814,0.214,11.601,0.375,17.362,1.206c-0.241-5.573-0.429-11.173-0.536-16.746c-5.519-1.179-11.119-1.474-16.773-1.661
		C566.715,687.383,566.796,693.143,567.117,698.958z M520.685,751.82c3.671,0.161,7.288,0.482,10.932,0.938
		c-0.536-4.555-1.018-9.083-1.366-13.611c-3.349-0.509-6.645-1.152-9.914-1.902C520.47,742.094,520.524,746.971,520.685,751.82z
		 M545.281,754.821c3.965,0.67,7.931,1.366,11.923,2.009c-0.188-4.93-0.321-9.86-0.482-14.817
		c-4.314-0.295-8.654-0.616-12.941-1.072C544.182,745.578,544.718,750.213,545.281,754.821z M569.609,729.368
		c5.466,0.241,10.851,0.482,16.13,0.777c-0.188-5.439-0.429-10.851-0.67-16.29c-5.6-1.152-11.253-1.393-16.906-1.581
		C568.671,718.034,569.261,723.768,569.609,729.368z M570.573,758.706c5.225,0.616,10.476,0.965,15.781,0.911
		c-0.161-5.332-0.241-10.664-0.295-15.996c0-0.027,0-0.027,0-0.053c-5.225-0.295-10.556-0.536-15.942-0.804
		C570.225,748.096,570.359,753.401,570.573,758.706z M554.98,711.604c-0.402-0.054-0.831-0.08-1.233-0.134
		c-4.073-0.455-8.118-0.911-12.164-1.34c0.455,5.787,0.911,11.575,1.313,17.282c4.421,0.509,8.868,0.884,13.316,1.179
		C555.918,722.991,555.435,717.311,554.98,711.604z M528.08,708.657c-3.349-0.375-6.698-0.723-10.074-1.045
		c0.697,5.493,1.42,10.825,1.795,15.701c3.135,0.831,6.323,1.527,9.565,2.117C528.964,719.856,528.508,714.256,528.08,708.657z
		 M534.43,780.676c-0.214-4.769-0.643-9.538-1.179-14.307c-3.938-0.509-7.85-0.938-11.816-1.125
		c0.375,4.635,0.965,9.27,1.876,13.852C526.901,779.766,530.652,780.275,534.43,780.676z M558.704,782.793
		c-0.402-4.18-0.697-8.333-0.911-12.486c-3.644-0.563-7.261-1.206-10.905-1.822c0.455,4.474,0.831,8.949,0.991,13.397
		c3.322,0.268,6.591,0.509,9.726,0.804C557.981,782.713,558.329,782.766,558.704,782.793z M588.016,785.955
		c-0.482-4.314-0.804-8.627-1.045-12.968c-5.278,0.107-10.53-0.214-15.728-0.804c0.241,4.046,0.563,8.092,0.965,12.137
		C577.459,784.937,582.738,785.553,588.016,785.955z M540.137,679.72c0,5.546,0.214,11.146,0.536,16.772
		c4.126,0.455,8.279,0.938,12.405,1.474c0.321,0.054,0.67,0.08,0.991,0.107c-0.295-5.653-0.375-11.28-0.054-16.826
		c-1.393-0.107-2.786-0.241-4.18-0.402C546.594,680.444,543.379,680.042,540.137,679.72z M517.095,678.434
		c-0.831,4.903-0.857,10.208-0.509,15.62c3.537,0.322,7.073,0.67,10.61,1.018c-0.295-5.519-0.482-11.012-0.429-16.451
		C523.552,678.461,520.31,678.38,517.095,678.434z M512.808,493.615c-0.482,0.027-0.938,0.161-1.393,0.348
		c-0.295,0.107-0.402,0.161-0.348,0.188c0.027,0,0.08,0,0.161-0.027c-0.08,0.027-0.134,0.027-0.161,0.027
		c-1.393,0.214-2.599,0.723-3.671,1.795c-1.099,1.099-1.956,2.894-1.956,4.528c0,0.08,0,0.134,0,0.214
		c0.134,3.322,2.947,7.047,6.698,6.698c0.965-0.107,1.929-0.134,2.84-0.509c1.688-0.697,3.054-1.447,3.992-3.081
		c0.857-1.447,1.206-3.564,0.696-5.171C518.783,495.92,515.835,493.321,512.808,493.615z M517.952,479.629v0.027
		c0.777,1.581,0.991,3.456,0.643,5.01c-0.375,1.581-1.688,3.188-3.081,3.992c-1.072,0.616-2.117,0.831-3.215,0.831
		c-0.616,0-1.259-0.054-1.956-0.161c-4.823-0.67-6.645-6.725-4.34-10.53c1.286-2.143,3.483-3.269,5.761-3.269
		c1.152,0,2.304,0.295,3.403,0.857C516.478,477.084,517.443,478.263,517.952,479.629z M514.576,457.766
		c-1.527-1.018-3.403-1.447-5.278-0.831c-3.295,1.072-5.894,4.689-4.689,8.225c1.152,3.43,3.805,5.225,7.073,5.225
		c0.616,0,1.233-0.08,1.876-0.188c2.894-0.536,4.957-3.671,4.957-6.538c0-0.589-0.107-1.152-0.268-1.688
		C517.577,459.91,516.264,458.49,514.576,457.766z M494.052,492.999c-5.117,0-7.181,4.716-6.243,8.547
		c0.67,2.626,2.733,4.85,6.243,4.85c4.046,0,6.216-2.947,6.457-6.082C500.804,496.777,498.634,492.999,494.052,492.999z
		 M491.936,488.525c0.241,0,0.482,0,0.697,0c3.51,0,6.886-3.081,6.698-6.698c-0.161-3.644-2.921-6.698-6.698-6.698
		c-0.214,0-0.455,0-0.697,0c-3.51,0-6.859,3.081-6.698,6.698C485.398,485.443,488.185,488.525,491.936,488.525z M491.936,470.091
		c8.627,0,8.627-13.397,0-13.397S483.309,470.091,491.936,470.091z"/>
	<path fill="#FFFFFF" d="M557.82,377.929c-8.479-1.574-4.866-14.483,3.561-12.918c15.775,2.929,34.481-4.085,50.025-7.26
		c8.43-1.722,12.002,11.194,3.561,12.918C596.323,374.477,576.805,381.455,557.82,377.929L557.82,377.929z M458.744,969.637
		c-4.486,10.051-9.423,18.514-7.302,29.955c1.917,10.344,8.41,19.074,18.003,23.461c7.784,3.56,14.6-7.982,6.761-11.568
		c-6.685-3.058-11.136-8.5-11.894-15.996c-0.723-7.147,3.219-12.86,6-19.091C473.796,968.593,462.256,961.771,458.744,969.637
		L458.744,969.637z M525.478,1047.589c8.107,6.956,22.382,11.49,32.385,6.383c15.496-7.91,25.587-25.907,39.344-36.451
		c6.75-5.173,0.085-16.815-6.761-11.568c-8.565,6.565-15.956,14.056-23.39,21.859c-3.685,3.868-7.637,9.185-12.243,11.965
		c-5.565,3.359-14.389,3.033-19.861-1.663C528.44,1032.53,518.922,1041.964,525.478,1047.589L525.478,1047.589z M519.445,602.645
		c13.254,2.526,26.703,2.989,40.155,2.314c8.58-0.431,8.631-13.83,0-13.397c-12.218,0.614-24.545,0.461-36.594-1.835
		C514.582,588.122,510.972,601.031,519.445,602.645L519.445,602.645z M621.553,526.922c18.43,20.125,31.994,43.972,50.127,64.129
		c5.778,6.423,15.228-3.076,9.473-9.473c-18.102-20.121-31.707-44.013-50.127-64.129
		C625.19,511.077,615.737,520.571,621.553,526.922L621.553,526.922z M624.689,478.566c14.489,20.462,29.481,40.566,44.473,60.661
		c15.92,21.338,30.419,43.807,47.057,64.588c5.388,6.729,14.812-2.804,9.473-9.473c-16.721-20.884-31.304-43.554-47.302-65.014
		c-14.204-19.054-28.398-38.126-42.133-57.523C631.314,464.825,619.692,471.509,624.689,478.566L624.689,478.566z"/>
</g>
</svg>
